<svg width="100" height="100" viewBox="0 0 100 100" fill="none" xmlns="http://www.w3.org/2000/svg">
<path d="M87.4999 28.0417C87.4166 28.0417 87.2916 28.0417 87.1666 28.0417C65.125 25.8333 43.125 25 21.3333 27.2083L12.8333 28.0417C11.0833 28.2083 9.54167 26.9583 9.375 25.2083C9.20833 23.4583 10.4583 21.9583 12.1667 21.7917L20.6667 20.9583C42.8333 18.7083 65.2916 19.5833 87.7916 21.7917C89.4999 21.9583 90.7499 23.5 90.5833 25.2083C90.4583 26.8333 89.0833 28.0417 87.4999 28.0417Z" fill="#F1454B"/>
<path d="M35.4167 23.8333C35.25 23.8333 35.0833 23.8333 34.875 23.7917C33.2083 23.5 32.0417 21.875 32.3333 20.2083L33.25 14.75C33.9167 10.75 34.8333 5.20834 44.5417 5.20834H55.4583C65.2083 5.20834 66.125 10.9583 66.75 14.7917L67.6667 20.2083C67.9583 21.9167 66.7917 23.5417 65.125 23.7917C63.4167 24.0833 61.7917 22.9167 61.5417 21.25L60.625 15.8333C60.0417 12.2083 59.9167 11.5 55.5 11.5H44.5833C40.1667 11.5 40.0833 12.0833 39.4583 15.7917L38.5 21.2083C38.25 22.75 36.9167 23.8333 35.4167 23.8333Z" fill="#F1454B"/>
<path d="M63.375 94.7916H36.625C22.0833 94.7916 21.5 86.75 21.0417 80.25L18.3333 38.2916C18.2083 36.5833 19.5417 35.0833 21.25 34.9583C23 34.875 24.4583 36.1667 24.5833 37.875L27.2917 79.8333C27.75 86.1666 27.9167 88.5416 36.625 88.5416H63.375C72.125 88.5416 72.2917 86.1666 72.7083 79.8333L75.4167 37.875C75.5417 36.1667 77.0417 34.875 78.75 34.9583C80.4583 35.0833 81.7917 36.5417 81.6667 38.2916L78.9583 80.25C78.5 86.75 77.9167 94.7916 63.375 94.7916Z" fill="#F1454B"/>
<path d="M56.9167 71.875H43.0417C41.3333 71.875 39.9167 70.4583 39.9167 68.75C39.9167 67.0417 41.3333 65.625 43.0417 65.625H56.9167C58.625 65.625 60.0417 67.0417 60.0417 68.75C60.0417 70.4583 58.625 71.875 56.9167 71.875Z" fill="#F1454B"/>
<path d="M60.4167 55.2083H39.5833C37.875 55.2083 36.4583 53.7916 36.4583 52.0833C36.4583 50.375 37.875 48.9583 39.5833 48.9583H60.4167C62.125 48.9583 63.5417 50.375 63.5417 52.0833C63.5417 53.7916 62.125 55.2083 60.4167 55.2083Z" fill="#F1454B"/>
</svg>
