<svg width="14" height="14" viewBox="0 0 14 14" fill="none" xmlns="http://www.w3.org/2000/svg">
<path d="M12.8333 8.74996V5.24996C12.8333 2.33329 11.6666 1.16663 8.74996 1.16663H5.24996C2.33329 1.16663 1.16663 2.33329 1.16663 5.24996V8.74996C1.16663 11.6666 2.33329 12.8333 5.24996 12.8333H8.74996C11.6666 12.8333 12.8333 11.6666 12.8333 8.74996Z" stroke="#CECECE" stroke-width="1.5" stroke-linecap="round" stroke-linejoin="round"/>
<path d="M1.46997 4.14746H12.53" stroke="#CECECE" stroke-width="1.5" stroke-linecap="round" stroke-linejoin="round"/>
<path d="M4.96997 1.23083V4.06583" stroke="#CECECE" stroke-width="1.5" stroke-linecap="round" stroke-linejoin="round"/>
<path d="M9.03003 1.23083V3.80334" stroke="#CECECE" stroke-width="1.5" stroke-linecap="round" stroke-linejoin="round"/>
<path d="M5.6875 8.42919V7.72919C5.6875 6.83086 6.32333 6.46336 7.09917 6.91253L7.70583 7.26253L8.3125 7.61253C9.08833 8.06169 9.08833 8.79669 8.3125 9.24586L7.70583 9.59586L7.09917 9.94586C6.32333 10.395 5.6875 10.0275 5.6875 9.12919V8.42919V8.42919Z" stroke="#CECECE" stroke-width="1.5" stroke-miterlimit="10" stroke-linecap="round" stroke-linejoin="round"/>
</svg>
