<svg width="32" height="32" viewBox="0 0 32 32" fill="none" xmlns="http://www.w3.org/2000/svg">
<path d="M2.66666 24.5067V16.2933C2.52 8.8 8.44 2.73333 15.9333 2.73333C23.4267 2.73333 29.3333 8.8 29.3333 16.1467V24.36" stroke="#1F191C" stroke-linecap="round" stroke-linejoin="round"/>
<path opacity="0.4" d="M7.28 24.6533V20.76C7.28 19.4667 8.29333 18.3067 9.73333 18.3067C11.0267 18.3067 12.1867 19.32 12.1867 20.76V24.5067C12.1867 27.1067 10.0267 29.2667 7.42667 29.2667C4.82667 29.2667 2.66667 27.0933 2.66667 24.5067M29.3333 24.36C29.3333 26.96 27.1733 29.12 24.5733 29.12C21.9733 29.12 19.8133 26.96 19.8133 24.36V20.6133C19.8133 19.32 20.8267 18.16 22.2667 18.16C23.56 18.16 24.72 19.1733 24.72 20.6133V24.6533" stroke="#1F191C" stroke-linecap="round" stroke-linejoin="round"/>
</svg>
