<svg width="244" height="260" viewBox="0 0 244 260" fill="none" xmlns="http://www.w3.org/2000/svg">
<path d="M209.704 89.225C209.704 138.088 170.091 177.7 121.227 177.7C72.3624 177.7 32.75 138.088 32.75 89.225C32.75 40.3616 72.3624 0.75 121.227 0.75C170.091 0.75 209.704 40.3616 209.704 89.225Z" stroke="#1F191C" stroke-width="1.5"/>
<mask id="mask0_248_4157" style="mask-type:alpha" maskUnits="userSpaceOnUse" x="36" y="4" width="171" height="171">
<ellipse cx="121.227" cy="89.0884" rx="85.0209" ry="85.02" fill="white"/>
</mask>
<g mask="url(#mask0_248_4157)">
<path d="M121.43 85.6837L129.924 33.555" stroke="#1F191C" stroke-width="1.5" stroke-miterlimit="10"/>
<path d="M121.43 85.6837L146.099 38.5586" stroke="#1F191C" stroke-width="1.5" stroke-miterlimit="10"/>
<path d="M121.43 85.6837L159.904 48.0814" stroke="#1F191C" stroke-width="1.5" stroke-miterlimit="10"/>
<path d="M121.43 85.6837L170.02 61.2124" stroke="#1F191C" stroke-width="1.5" stroke-miterlimit="10"/>
<path d="M121.43 85.6837L175.474 76.6897" stroke="#1F191C" stroke-width="1.5" stroke-miterlimit="10"/>
<path d="M121.157 85.6837L112.659 33.555" stroke="#1F191C" stroke-width="1.5" stroke-miterlimit="10"/>
<path d="M121.158 85.6837L96.4888 38.5586" stroke="#1F191C" stroke-width="1.5" stroke-miterlimit="10"/>
<path d="M121.157 85.6837L82.6831 48.0814" stroke="#1F191C" stroke-width="1.5" stroke-miterlimit="10"/>
<path d="M121.157 85.6837L72.5679 61.2124" stroke="#1F191C" stroke-width="1.5" stroke-miterlimit="10"/>
<path d="M121.157 85.6837L68.7622 76.9652" stroke="#1F191C" stroke-width="1.5" stroke-miterlimit="10"/>
<path d="M121.733 86.7841V4.9743" stroke="#1F191C" stroke-width="1.5" stroke-miterlimit="10"/>
<path d="M121.733 86.7842L147.59 8.89859" stroke="#1F191C" stroke-width="1.5" stroke-miterlimit="10"/>
<path d="M121.733 86.7842L170.97 20.2972" stroke="#1F191C" stroke-width="1.5" stroke-miterlimit="10"/>
<path d="M121.733 86.7841L189.622 38.0715" stroke="#1F191C" stroke-width="1.5" stroke-miterlimit="10"/>
<path d="M121.733 86.7842L201.763 60.5233" stroke="#1F191C" stroke-width="1.5" stroke-miterlimit="10"/>
<path d="M121.733 86.7842L206.228 85.4937" stroke="#1F191C" stroke-width="1.5" stroke-miterlimit="10"/>
<path d="M121.307 86.7842L95.4443 8.89859" stroke="#1F191C" stroke-width="1.5" stroke-miterlimit="10"/>
<path d="M121.307 86.7842L72.0645 20.2972" stroke="#1F191C" stroke-width="1.5" stroke-miterlimit="10"/>
<path d="M121.307 86.7841L53.4126 38.0715" stroke="#1F191C" stroke-width="1.5" stroke-miterlimit="10"/>
<path d="M121.307 86.7842L41.2715 60.5233" stroke="#1F191C" stroke-width="1.5" stroke-miterlimit="10"/>
<path d="M121.307 86.7842L36.8066 85.4937" stroke="#1F191C" stroke-width="1.5" stroke-miterlimit="10"/>
<path d="M164.038 83.9871C164.038 107.63 144.871 126.797 121.226 126.797C97.5821 126.797 78.4146 107.63 78.4146 83.9871C78.4146 60.3438 97.5821 41.1771 121.226 41.1771C144.871 41.1771 164.038 60.3438 164.038 83.9871Z" fill="#FFE576" stroke="#F9F3E5" stroke-width="1.5"/>
<path d="M218.832 85H12V174.382H218.832V85Z" fill="#3DA1E3" stroke="#1F191C" stroke-width="1.5" stroke-miterlimit="10"/>
<path d="M165.896 94.1533H173.443M192.736 94.1533H200.277M134.315 94.1533H152.911M109.686 94.1533H126.408M72.6312 94.1533H91.2878M150.141 100.192H164.099M108.995 100.192H140.984M90.1642 100.192H95.4397M70.5103 100.192H81.0854M135.661 106.236H154.756M180.491 106.236H199.586M111.302 106.236H127.249M77.354 106.236H84.8827M101.064 106.236H107.607M23.4393 106.236H33.119M136.622 112.275H145.413M86.6973 112.275H117.671M116.055 118.319H136.069M96.0405 118.319H103.725M54.0228 118.319H66.5026M122.574 124.358H126.726M34.8436 124.358H40.3294M190.038 124.358H196.948M105.384 124.358H116.391M23.1509 94.1533H31.9294M59.8391 106.236H70.2699" stroke="white" stroke-opacity="0.4" stroke-width="2" stroke-miterlimit="10"/>
<path d="M209.703 131.664C204.043 130.177 197.481 133.429 191.245 132.237C185.47 131.123 179.894 125.517 173.688 124.674C167.835 123.879 161.514 127.863 155.332 127.33C149.425 126.821 143.555 121.764 137.396 121.509C131.454 121.263 125.349 125.803 119.214 125.803C113.08 125.803 107.51 121.255 101.819 121.477C95.9371 121.716 90.3191 126.734 84.6591 127.203C78.7587 127.688 72.7081 123.64 67.0961 124.364C61.1717 125.127 55.8301 130.654 50.2842 131.664C44.3358 132.746 38.0568 129.35 32.6011 130.686V175.52H209.348L209.691 131.672L209.703 131.664Z" fill="#9ED4DF" stroke="#1F191C" stroke-width="1.5" stroke-miterlimit="10"/>
<path d="M205.498 89.0884C205.498 135.629 167.768 173.358 121.227 173.358C74.6854 173.358 36.9561 135.629 36.9561 89.0884C36.9561 42.5473 74.6854 4.81836 121.227 4.81836C167.768 4.81836 205.498 42.5473 205.498 89.0884Z" stroke="#1F191C" stroke-width="1.5"/>
</g>
<path d="M93.7077 140.801C90.379 129.549 90.1987 117.437 93.191 106.092C96.2433 94.5378 102.588 83.809 111.337 75.4049L113.284 76.9742C105.701 86.3779 100.804 97.7925 99.2836 109.631C97.9978 119.645 99.1274 129.938 102.522 139.481" fill="#795C56"/>
<path d="M93.7077 140.801C90.379 129.549 90.1987 117.437 93.191 106.092C96.2433 94.5378 102.588 83.809 111.337 75.4049L113.284 76.9742C105.701 86.3779 100.804 97.7925 99.2836 109.631C97.9978 119.645 99.1274 129.938 102.522 139.481" stroke="#1F191C" stroke-width="1.5" stroke-miterlimit="10"/>
<mask id="mask1_248_4157" style="mask-type:luminance" maskUnits="userSpaceOnUse" x="91" y="75" width="23" height="66">
<path d="M99.2899 109.637C100.81 97.7983 105.701 86.3837 113.29 76.98L111.343 75.4108C102.589 83.8148 96.2496 94.5378 93.1973 106.098C90.199 117.437 90.3853 129.549 93.714 140.807L102.535 139.487C99.1397 129.944 98.0101 119.651 99.2959 109.637H99.2899Z" fill="white"/>
</mask>
<g mask="url(#mask1_248_4157)">
<path d="M107.359 77.9448L111.692 80.81" stroke="#1F191C" stroke-width="1.5" stroke-miterlimit="10"/>
<path d="M91.0942 134.599L101.603 132.757" stroke="#1F191C" stroke-width="1.5" stroke-miterlimit="10"/>
<path d="M90.1631 126.161L100.408 125.765" stroke="#1F191C" stroke-width="1.5" stroke-miterlimit="10"/>
<path d="M90.3916 117.983L99.7109 118.419" stroke="#1F191C" stroke-width="1.5" stroke-miterlimit="10"/>
<path d="M91.5688 109.626L100.257 111.131" stroke="#1F191C" stroke-width="1.5" stroke-miterlimit="10"/>
<path d="M93.75 101.64L101.687 103.959" stroke="#1F191C" stroke-width="1.5" stroke-miterlimit="10"/>
<path d="M96.3276 94.0264L103.099 96.8684" stroke="#1F191C" stroke-width="1.5" stroke-miterlimit="10"/>
<path d="M99.8008 88.3133L105.593 91.0856" stroke="#1F191C" stroke-width="1.5" stroke-miterlimit="10"/>
<path d="M103.502 83.1871L108.225 86.0117" stroke="#1F191C" stroke-width="1.5" stroke-miterlimit="10"/>
</g>
<path d="M112.172 77.1136C112.172 77.1136 121.022 71.4005 129.17 80.4439C135.251 87.1973 130.684 94.8052 128.113 98.0598" stroke="#1F191C" stroke-width="1.5" stroke-miterlimit="10"/>
<path d="M124.952 76.9858C124.952 76.9858 133.13 83.1639 125.757 92.8465" stroke="#1F191C" stroke-width="1.5" stroke-miterlimit="10"/>
<path d="M121.966 75.7537C121.966 75.7537 127.686 79.7581 124.009 88.1273" stroke="#1F191C" stroke-width="1.5" stroke-miterlimit="10"/>
<path d="M118.487 75.3352C118.487 75.3352 123.155 78.0901 121.137 83.5126" stroke="#1F191C" stroke-width="1.5" stroke-miterlimit="10"/>
<path d="M112.646 77.0439C112.646 77.0439 116.558 67.4717 128.581 70.4241C134.674 71.9178 136.963 76.4453 137.744 80.4729" stroke="#1F191C" stroke-width="1.5" stroke-miterlimit="10"/>
<path d="M123.078 69.9011C123.078 69.9011 130.751 70.3311 132.655 78.1075" stroke="#1F191C" stroke-width="1.5" stroke-miterlimit="10"/>
<path d="M119.899 70.5345C119.899 70.5345 124.201 70.6217 126.995 74.8993" stroke="#1F191C" stroke-width="1.5" stroke-miterlimit="10"/>
<path d="M116.792 72.1096C116.792 72.1096 119.184 71.9759 121.245 73.4986" stroke="#1F191C" stroke-width="1.5" stroke-miterlimit="10"/>
<path d="M111.577 75.835C111.577 75.835 118.517 70.1335 112.737 61.526C109.811 57.1613 105.389 56.6092 101.795 57.109" stroke="#1F191C" stroke-width="1.5" stroke-miterlimit="10"/>
<path d="M114.69 65.6932C114.69 65.6932 112.22 59.7999 105.178 60.445" stroke="#1F191C" stroke-width="1.5" stroke-miterlimit="10"/>
<path d="M115.038 68.3609C115.038 68.3609 113.782 65.0132 109.432 64.0019" stroke="#1F191C" stroke-width="1.5" stroke-miterlimit="10"/>
<path d="M114.569 71.2262C114.569 71.2262 114.022 69.314 112.178 68.1226" stroke="#1F191C" stroke-width="1.5" stroke-miterlimit="10"/>
<path d="M111.745 75.6142C111.745 75.6142 105.605 68.4655 96.1533 74.2658C91.3585 77.2066 90.7096 81.7109 91.2143 85.3782" stroke="#1F191C" stroke-width="1.5" stroke-miterlimit="10"/>
<path d="M100.72 72.3188C100.72 72.3188 94.2605 74.7715 94.8854 81.9666" stroke="#1F191C" stroke-width="1.5" stroke-miterlimit="10"/>
<path d="M103.628 71.9991C103.628 71.9991 99.9627 73.2429 98.8091 77.6716" stroke="#1F191C" stroke-width="1.5" stroke-miterlimit="10"/>
<path d="M106.752 72.5048C106.752 72.5048 104.661 73.0395 103.339 74.9051" stroke="#1F191C" stroke-width="1.5" stroke-miterlimit="10"/>
<path d="M112.365 76.5732C112.365 76.5732 120.5 79.9208 117.718 89.5163C116.306 94.3809 112.371 96.1245 108.892 96.665" stroke="#1F191C" stroke-width="1.5" stroke-miterlimit="10"/>
<path d="M118.283 85.105C118.283 85.105 117.754 91.2599 111.031 92.6315" stroke="#1F191C" stroke-width="1.5" stroke-miterlimit="10"/>
<path d="M117.802 82.5362C117.802 82.5362 117.64 85.9943 113.903 88.1447" stroke="#1F191C" stroke-width="1.5" stroke-miterlimit="10"/>
<path d="M116.516 80.008C116.516 80.008 116.582 81.9317 115.23 83.5533" stroke="#1F191C" stroke-width="1.5" stroke-miterlimit="10"/>
<path d="M111.355 76.7882C111.355 76.7882 113.836 66.78 102.246 62.5141C94.8013 59.7708 89.4657 64.4146 86.6777 67.9657" stroke="#1F191C" stroke-width="1.5" stroke-miterlimit="10"/>
<path d="M107.065 65.1469C107.065 65.1469 98.737 60.1544 91.9834 69.0874" stroke="#1F191C" stroke-width="1.5" stroke-miterlimit="10"/>
<path d="M109.288 67.431C109.288 67.431 104.181 64.1124 97.9321 68.7445" stroke="#1F191C" stroke-width="1.5" stroke-miterlimit="10"/>
<path d="M110.898 70.4474C110.898 70.4474 107.684 67.9831 103.862 69.7325" stroke="#1F191C" stroke-width="1.5" stroke-miterlimit="10"/>
<path d="M90.4331 142.69C90.4331 142.69 97.421 138.069 107.227 140.237" stroke="#1F191C" stroke-width="1.5" stroke-miterlimit="10"/>
<path d="M86.0826 136.022C87.056 126.311 85.3135 116.349 81.0835 107.486C76.7753 98.4541 69.9016 90.5906 61.4115 84.9763L60.0596 86.5513C67.7505 93.1536 73.5427 101.796 76.6371 111.281C79.2569 119.307 79.9358 127.909 78.644 136.232" fill="#795C56"/>
<path d="M86.0826 136.022C87.056 126.311 85.3135 116.349 81.0835 107.486C76.7753 98.4541 69.9016 90.5906 61.4115 84.9763L60.0596 86.5513C67.7505 93.1536 73.5427 101.796 76.6371 111.281C79.2569 119.307 79.9358 127.909 78.644 136.232" stroke="#1F191C" stroke-width="1.5" stroke-miterlimit="10"/>
<path d="M60.997 86.499C60.997 86.499 52.8494 83.1048 47.5799 91.7123C43.6443 98.1403 48.5833 103.708 51.1971 105.998" stroke="#1F191C" stroke-width="1.5" stroke-miterlimit="10"/>
<path d="M50.4941 88.26C50.4941 88.26 44.75 94.5195 52.3147 101.383" stroke="#1F191C" stroke-width="1.5" stroke-miterlimit="10"/>
<path d="M52.7532 86.8128C52.7532 86.8128 48.6855 90.9277 53.0116 97.2569" stroke="#1F191C" stroke-width="1.5" stroke-miterlimit="10"/>
<path d="M55.5412 85.9643C55.5412 85.9643 52.1464 88.9051 54.6459 93.0549" stroke="#1F191C" stroke-width="1.5" stroke-miterlimit="10"/>
<path d="M60.5885 86.5106C60.5885 86.5106 55.8838 79.2341 46.4865 83.407C43.2899 84.831 41.7097 87.1209 41.0127 89.5038" stroke="#1F191C" stroke-width="1.5" stroke-miterlimit="10"/>
<path d="M50.921 82.1807C50.921 82.1807 46.2223 83.2908 44.7622 87.952" stroke="#1F191C" stroke-width="1.5" stroke-miterlimit="10"/>
<path d="M53.6308 82.233C53.6308 82.233 51.0471 82.7445 49.2866 85.3599" stroke="#1F191C" stroke-width="1.5" stroke-miterlimit="10"/>
<path d="M56.4187 83.0699C56.4187 83.0699 54.4359 83.3082 52.9878 84.86" stroke="#1F191C" stroke-width="1.5" stroke-miterlimit="10"/>
<path d="M61.2796 85.3657C61.2796 85.3657 54.7003 81.7042 58.0891 73.7999C59.8075 69.7897 63.3466 68.697 66.3689 68.5808" stroke="#1F191C" stroke-width="1.5" stroke-miterlimit="10"/>
<path d="M57.1455 77.5021C57.1455 77.5021 58.2511 72.3063 64.1274 71.8064" stroke="#1F191C" stroke-width="1.5" stroke-miterlimit="10"/>
<path d="M57.2778 79.7397C57.2778 79.7397 57.7826 76.8105 61.1954 75.3459" stroke="#1F191C" stroke-width="1.5" stroke-miterlimit="10"/>
<path d="M58.1069 82.0238C58.1069 82.0238 58.2571 80.379 59.579 79.1295" stroke="#1F191C" stroke-width="1.5" stroke-miterlimit="10"/>
<path d="M61.1113 85.2029C61.1113 85.2029 65.0289 78.4437 73.6872 81.8204C78.0795 83.5291 79.3112 87.1267 79.4734 90.2128" stroke="#1F191C" stroke-width="1.5" stroke-miterlimit="10"/>
<path d="M69.6377 80.8963C69.6377 80.8963 75.3158 81.9657 75.9286 87.952" stroke="#1F191C" stroke-width="1.5" stroke-miterlimit="10"/>
<path d="M67.1978 81.059C67.1978 81.059 70.4003 81.5414 72.0346 85.0053" stroke="#1F191C" stroke-width="1.5" stroke-miterlimit="10"/>
<path d="M64.7163 81.925C64.7163 81.925 66.5129 82.0587 67.8888 83.3954" stroke="#1F191C" stroke-width="1.5" stroke-miterlimit="10"/>
<path d="M60.7507 86.0864C60.7507 86.0864 54.598 90.021 58.3834 97.4836C60.3001 101.267 63.7971 102.121 66.7352 102.058" stroke="#1F191C" stroke-width="1.5" stroke-miterlimit="10"/>
<path d="M57.2295 93.9441C57.2295 93.9441 58.6235 98.9133 64.3496 99.0528" stroke="#1F191C" stroke-width="1.5" stroke-miterlimit="10"/>
<path d="M57.2236 91.7704C57.2236 91.7704 57.8966 94.5834 61.2974 95.8039" stroke="#1F191C" stroke-width="1.5" stroke-miterlimit="10"/>
<path d="M57.8848 89.5096C57.8848 89.5096 58.1311 91.0962 59.4951 92.2296" stroke="#1F191C" stroke-width="1.5" stroke-miterlimit="10"/>
<path d="M61.6099 86.1154C61.6099 86.1154 58.0108 78.2693 66.8493 73.0793C72.5274 69.7432 77.6287 72.7654 80.4647 75.2704" stroke="#1F191C" stroke-width="1.5" stroke-miterlimit="10"/>
<path d="M63.3105 75.9387C63.3105 75.9387 69.3612 70.6266 76.295 76.9674" stroke="#1F191C" stroke-width="1.5" stroke-miterlimit="10"/>
<path d="M61.8442 78.1356C61.8442 78.1356 65.5155 74.6659 71.3618 77.5486" stroke="#1F191C" stroke-width="1.5" stroke-miterlimit="10"/>
<path d="M60.9971 80.844C60.9971 80.844 63.2503 78.3565 66.6571 79.2283" stroke="#1F191C" stroke-width="1.5" stroke-miterlimit="10"/>
<mask id="mask2_248_4157" style="mask-type:luminance" maskUnits="userSpaceOnUse" x="60" y="84" width="27" height="53">
<path d="M76.6371 111.281C73.5427 101.796 67.7445 93.1536 60.0596 86.5513L61.4115 84.9763C69.9016 90.5848 76.7753 98.4541 81.0835 107.486C85.3135 116.349 87.056 126.305 86.0826 136.022L78.644 136.232C79.9358 127.915 79.2569 119.307 76.6371 111.281Z" fill="white"/>
</mask>
<g mask="url(#mask2_248_4157)">
<path d="M65.0648 86.4757L61.9644 89.4573" stroke="#1F191C" stroke-width="1.5" stroke-miterlimit="10"/>
<path d="M87.1884 130.286L78.2837 130.315" stroke="#1F191C" stroke-width="1.5" stroke-miterlimit="10"/>
<path d="M86.7077 122.556L78.2417 123.724" stroke="#1F191C" stroke-width="1.5" stroke-miterlimit="10"/>
<path d="M85.1095 115.611L77.5327 117.331" stroke="#1F191C" stroke-width="1.5" stroke-miterlimit="10"/>
<path d="M82.5856 108.84L75.6938 111.339" stroke="#1F191C" stroke-width="1.5" stroke-miterlimit="10"/>
<path d="M79.365 102.325L73.2183 105.388" stroke="#1F191C" stroke-width="1.5" stroke-miterlimit="10"/>
<path d="M75.9222 97.1871L70.8149 100.512" stroke="#1F191C" stroke-width="1.5" stroke-miterlimit="10"/>
<path d="M72.0348 92.5783L67.7207 95.6993" stroke="#1F191C" stroke-width="1.5" stroke-miterlimit="10"/>
<path d="M68.4475 89.2887L65.0166 92.2935" stroke="#1F191C" stroke-width="1.5" stroke-miterlimit="10"/>
</g>
<path d="M88.9307 136.615C85.9084 135.831 81.384 135.18 76.0845 136.098" stroke="#1F191C" stroke-width="1.5" stroke-miterlimit="10"/>
<path d="M129.741 135.502C129.032 141.093 129.717 145.51 130.69 148.707L138.051 149.195C139.721 146.341 141.367 142.319 142.046 136.955C143.374 126.441 139.799 120.031 138.603 118.235C138.411 117.944 137.997 117.898 137.738 118.13C136.134 119.601 131.063 124.988 129.735 135.496L129.741 135.502Z" fill="#E6DBC3" stroke="#1F191C" stroke-width="1.5" stroke-miterlimit="10"/>
<path d="M133.508 123.367C134.169 123.442 134.073 124.204 134.728 124.279C135.389 124.355 135.485 123.599 136.14 123.675C136.801 123.75 136.705 124.512 137.36 124.587C138.021 124.663 138.117 123.907 138.772 123.983C139.433 124.058 139.337 124.82 139.998 124.901C140.658 124.977 140.755 124.221 141.416 124.297" stroke="#1F191C" stroke-width="1.5" stroke-miterlimit="10"/>
<path d="M122.128 150.421C122.128 150.421 133.538 142.813 146.679 150.811Z" fill="#9ED4DF"/>
<path d="M122.128 150.421C122.128 150.421 133.538 142.813 146.679 150.811" stroke="#1F191C" stroke-width="1.5" stroke-miterlimit="10"/>
<path d="M183.469 106.793C175.988 104.103 167.913 106.939 164.789 113.134L193.311 123.398C195.138 116.732 190.938 109.479 183.463 106.788L183.469 106.793Z" fill="#4CBA08" stroke="#1F191C" stroke-width="1.5" stroke-miterlimit="10"/>
<path d="M183.469 106.793C180.08 105.573 175.364 109.618 172.594 115.941L185.518 120.591C187.699 114.053 186.858 108.008 183.469 106.788V106.793Z" fill="#E6DBC3" stroke="#1F191C" stroke-width="1.5" stroke-miterlimit="10"/>
<path d="M179.053 118.266L171.482 137.957" stroke="#1F191C" stroke-width="1.5" stroke-miterlimit="10"/>
<path d="M166.561 138.492C166.561 138.492 171.073 135.47 176.349 138.829" stroke="#1F191C" stroke-width="1.5" stroke-miterlimit="10"/>
<path d="M215.137 222.708H188.244C185.663 222.708 183.443 221.843 181.585 220.112C179.761 218.381 178.815 216.284 178.746 213.821H184.166C184.441 214.919 185.044 215.834 185.973 216.567C186.936 217.266 188.037 217.615 189.276 217.615H214.157C215.602 217.615 216.824 217.133 217.822 216.167C218.854 215.169 219.37 213.97 219.37 212.572V207.879L182.153 207.929C181.258 207.929 180.484 207.613 179.83 206.98C179.176 206.348 178.849 205.599 178.849 204.733V196.795C178.849 194.265 179.778 192.101 181.637 190.304C183.495 188.506 185.732 187.607 188.347 187.607H215.241C217.822 187.607 220.024 188.473 221.848 190.204C223.706 191.935 224.67 194.032 224.738 196.495H219.318C219.043 195.396 218.424 194.481 217.46 193.749C216.531 193.016 215.447 192.65 214.208 192.65H189.328C187.883 192.65 186.644 193.15 185.611 194.148C184.613 195.147 184.114 196.328 184.114 197.693V202.636H221.332C221.917 202.636 222.467 202.786 222.983 203.086C223.5 203.352 223.895 203.735 224.171 204.234C224.48 204.7 224.635 205.216 224.635 205.782V213.521C224.635 216.051 223.706 218.214 221.848 220.012C219.99 221.809 217.753 222.708 215.137 222.708Z" fill="#1F191C"/>
<path d="M164.073 222.708H137.18C134.564 222.708 132.327 221.809 130.469 220.012C128.611 218.214 127.682 216.051 127.682 213.521V196.795C127.682 194.265 128.611 192.101 130.469 190.304C132.327 188.506 134.564 187.607 137.18 187.607H164.073C166.688 187.607 168.925 188.506 170.783 190.304C172.642 192.101 173.571 194.265 173.571 196.795V213.521C173.571 216.051 172.642 218.214 170.783 220.012C168.925 221.809 166.688 222.708 164.073 222.708ZM138.212 192.7C137.248 192.7 136.354 192.933 135.528 193.399C134.736 193.832 134.1 194.448 133.618 195.247C133.136 196.046 132.895 196.894 132.895 197.793V212.472C132.895 213.87 133.411 215.069 134.444 216.067C135.476 217.066 136.732 217.565 138.212 217.565H163.041C164.486 217.565 165.725 217.066 166.757 216.067C167.789 215.069 168.306 213.87 168.306 212.472V197.793C168.306 196.395 167.789 195.197 166.757 194.198C165.725 193.2 164.486 192.7 163.041 192.7H138.212Z" fill="#1F191C"/>
<path d="M83.7467 222.708H78.5332V187.607H83.7467V205.982L111.931 187.607H121.377L100.368 201.288L122.512 222.658H115.131L95.9288 204.134L83.7467 212.073V222.708Z" fill="#1F191C"/>
<path d="M73.3624 222.658H68.1489V187.607H73.3624V222.658Z" fill="#1F191C"/>
<path d="M24.2135 222.708H19V187.607H24.2135V205.982L52.3974 187.607H61.8436L40.8348 201.288L62.9793 222.658H55.5978L36.3956 204.134L24.2135 212.073V222.708Z" fill="#1F191C"/>
<path d="M165.595 251.223C166.657 251.223 167.568 251.266 168.328 251.35C169.087 251.435 169.726 251.561 170.243 251.73C170.767 251.893 171.184 252.098 171.493 252.345C171.802 252.592 172.041 252.875 172.209 253.193C172.377 253.505 172.485 253.856 172.532 254.246C172.585 254.636 172.612 255.059 172.612 255.514C172.612 255.969 172.569 256.398 172.481 256.801C172.401 257.198 172.253 257.562 172.038 257.894C171.823 258.225 171.53 258.521 171.16 258.781C170.791 259.041 170.32 259.262 169.749 259.444C169.178 259.626 168.489 259.763 167.682 259.854C166.882 259.951 165.945 260 164.869 260H162.289C161.321 260 160.474 259.964 159.748 259.893C159.022 259.821 158.397 259.714 157.873 259.571C157.348 259.421 156.915 259.236 156.572 259.015C156.229 258.787 155.954 258.524 155.745 258.225C155.544 257.92 155.403 257.575 155.322 257.191C155.241 256.801 155.201 256.372 155.201 255.904H157.137C157.137 256.489 157.224 256.948 157.399 257.279C157.574 257.611 157.863 257.861 158.266 258.03C158.669 258.193 159.197 258.297 159.849 258.342C160.507 258.381 161.321 258.401 162.289 258.401H164.869C165.999 258.401 166.936 258.349 167.682 258.245C168.428 258.141 169.023 257.975 169.467 257.747C169.91 257.52 170.223 257.224 170.404 256.86C170.586 256.489 170.677 256.041 170.677 255.514C170.677 254.987 170.613 254.549 170.485 254.198C170.364 253.847 170.119 253.567 169.749 253.359C169.386 253.151 168.872 253.005 168.207 252.92C167.541 252.829 166.671 252.784 165.595 252.784H162.934C161.751 252.784 160.736 252.741 159.889 252.657C159.049 252.572 158.343 252.452 157.772 252.296C157.201 252.133 156.744 251.935 156.401 251.701C156.058 251.461 155.796 251.187 155.614 250.882C155.44 250.576 155.325 250.238 155.272 249.868C155.218 249.491 155.191 249.084 155.191 248.649C155.191 248.194 155.231 247.771 155.312 247.381C155.399 246.991 155.557 246.64 155.786 246.328C156.014 246.009 156.327 245.726 156.723 245.479C157.12 245.232 157.627 245.028 158.246 244.865C158.871 244.696 159.62 244.569 160.494 244.485C161.368 244.4 162.396 244.358 163.579 244.358H165.515C166.483 244.358 167.329 244.394 168.055 244.465C168.781 244.53 169.406 244.637 169.931 244.787C170.455 244.93 170.888 245.112 171.231 245.333C171.581 245.548 171.856 245.808 172.058 246.113C172.266 246.412 172.411 246.754 172.491 247.137C172.572 247.521 172.612 247.947 172.612 248.415H170.677C170.677 247.83 170.589 247.371 170.414 247.04C170.24 246.708 169.951 246.461 169.547 246.299C169.144 246.13 168.613 246.025 167.954 245.986C167.296 245.941 166.483 245.918 165.515 245.918H163.579C162.289 245.918 161.227 245.964 160.393 246.055C159.56 246.139 158.901 246.286 158.417 246.494C157.933 246.702 157.597 246.981 157.409 247.332C157.221 247.683 157.127 248.122 157.127 248.649C157.127 248.974 157.15 249.263 157.197 249.517C157.244 249.77 157.338 249.995 157.479 250.19C157.627 250.378 157.832 250.537 158.094 250.667C158.357 250.797 158.703 250.905 159.133 250.989C159.563 251.074 160.087 251.135 160.706 251.174C161.331 251.207 162.073 251.223 162.934 251.223H165.595Z" fill="#3DA1E3"/>
<path d="M152.287 259.649H150.352V256.84C150.352 256.385 150.342 255.995 150.321 255.67C150.308 255.339 150.251 255.056 150.15 254.822C150.056 254.588 149.905 254.399 149.696 254.256C149.488 254.113 149.192 254.003 148.809 253.925C148.426 253.847 147.939 253.795 147.347 253.769C146.763 253.736 146.04 253.72 145.18 253.72H136.479V259.649H134.543V244.67H145.502C146.685 244.67 147.68 244.712 148.487 244.797C149.3 244.875 149.969 244.995 150.493 245.158C151.024 245.32 151.43 245.522 151.713 245.762C152.002 246.003 152.21 246.286 152.338 246.611C152.472 246.936 152.55 247.3 152.57 247.703C152.597 248.106 152.61 248.551 152.61 249.039C152.61 249.663 152.563 250.212 152.469 250.687C152.382 251.155 152.23 251.555 152.015 251.886C151.8 252.218 151.514 252.485 151.158 252.686C150.802 252.881 150.355 253.018 149.817 253.096C150.355 253.174 150.785 253.31 151.108 253.505C151.43 253.7 151.679 253.954 151.854 254.266C152.029 254.578 152.143 254.948 152.197 255.378C152.257 255.807 152.287 256.294 152.287 256.84V259.649ZM136.479 252.159H145.502C146.363 252.159 147.085 252.146 147.67 252.12C148.261 252.088 148.749 252.033 149.132 251.955C149.515 251.877 149.811 251.766 150.019 251.623C150.227 251.48 150.379 251.292 150.473 251.057C150.574 250.823 150.631 250.544 150.644 250.219C150.664 249.887 150.674 249.494 150.674 249.039C150.674 248.616 150.664 248.252 150.644 247.947C150.631 247.641 150.574 247.384 150.473 247.176C150.379 246.968 150.227 246.802 150.019 246.679C149.811 246.555 149.515 246.461 149.132 246.396C148.749 246.325 148.261 246.279 147.67 246.26C147.085 246.24 146.363 246.23 145.502 246.23H136.479V252.159Z" fill="#3DA1E3"/>
<path d="M131.308 244.67V252.159C131.308 253.044 131.294 253.85 131.267 254.578C131.247 255.306 131.17 255.959 131.035 256.538C130.908 257.117 130.703 257.621 130.42 258.05C130.138 258.479 129.735 258.836 129.211 259.122C128.686 259.402 128.018 259.61 127.204 259.746C126.398 259.889 125.403 259.961 124.22 259.961H119.683C118.5 259.961 117.502 259.889 116.689 259.746C115.882 259.61 115.217 259.402 114.693 259.122C114.168 258.836 113.762 258.479 113.473 258.05C113.191 257.621 112.982 257.117 112.848 256.538C112.72 255.959 112.646 255.306 112.626 254.578C112.606 253.85 112.596 253.044 112.596 252.159V244.67H114.531V252.159C114.531 253.096 114.538 253.902 114.552 254.578C114.572 255.248 114.629 255.813 114.723 256.275C114.817 256.736 114.965 257.107 115.167 257.386C115.375 257.666 115.671 257.881 116.054 258.03C116.437 258.18 116.921 258.28 117.506 258.332C118.097 258.378 118.823 258.401 119.683 258.401H124.22C125.074 258.401 125.796 258.378 126.388 258.332C126.979 258.28 127.463 258.18 127.839 258.03C128.223 257.881 128.518 257.666 128.727 257.386C128.935 257.107 129.086 256.736 129.18 256.275C129.281 255.813 129.338 255.248 129.352 254.578C129.365 253.902 129.372 253.096 129.372 252.159L129.362 244.67H131.308Z" fill="#3DA1E3"/>
<path d="M102.917 244.358C104.1 244.358 105.095 244.429 105.901 244.572C106.715 244.709 107.383 244.92 107.908 245.206C108.432 245.486 108.835 245.84 109.118 246.269C109.4 246.698 109.605 247.202 109.733 247.781C109.867 248.359 109.944 249.013 109.964 249.741C109.991 250.469 110.005 251.275 110.005 252.159C110.005 253.044 109.991 253.85 109.964 254.578C109.944 255.306 109.867 255.959 109.733 256.538C109.605 257.117 109.4 257.621 109.118 258.05C108.835 258.479 108.432 258.836 107.908 259.122C107.383 259.402 106.715 259.61 105.901 259.746C105.095 259.889 104.1 259.961 102.917 259.961H97.09C95.907 259.961 94.9089 259.889 94.0957 259.746C93.2891 259.61 92.6237 259.402 92.0995 259.122C91.5752 258.836 91.1686 258.479 90.8796 258.05C90.5973 257.621 90.3889 257.117 90.2545 256.538C90.1268 255.959 90.0529 255.306 90.0327 254.578C90.0125 253.85 90.0024 253.044 90.0024 252.159C90.0024 251.275 90.0125 250.469 90.0327 249.741C90.0529 249.013 90.1268 248.359 90.2545 247.781C90.3889 247.202 90.5973 246.698 90.8796 246.269C91.1686 245.84 91.5752 245.486 92.0995 245.206C92.6237 244.92 93.2891 244.709 94.0957 244.572C94.9089 244.429 95.907 244.358 97.09 244.358H102.917ZM102.917 258.401C103.771 258.401 104.49 258.378 105.075 258.332C105.666 258.28 106.153 258.18 106.537 258.03C106.92 257.881 107.215 257.666 107.424 257.386C107.632 257.107 107.783 256.736 107.877 256.275C107.972 255.813 108.025 255.248 108.039 254.578C108.059 253.902 108.069 253.096 108.069 252.159C108.069 251.223 108.059 250.42 108.039 249.751C108.025 249.075 107.972 248.506 107.877 248.044C107.783 247.583 107.632 247.212 107.424 246.932C107.215 246.653 106.92 246.438 106.537 246.289C106.16 246.139 105.676 246.042 105.085 245.996C104.5 245.944 103.778 245.918 102.917 245.918H97.09C96.2296 245.918 95.5037 245.944 94.9123 245.996C94.3275 246.042 93.8436 246.139 93.4605 246.289C93.0774 246.438 92.7817 246.653 92.5733 246.932C92.3649 247.212 92.2137 247.583 92.1196 248.044C92.0255 248.506 91.9718 249.075 91.9583 249.751C91.9449 250.42 91.9381 251.223 91.9381 252.159C91.9381 253.096 91.9449 253.902 91.9583 254.578C91.9785 255.248 92.0356 255.813 92.1297 256.275C92.2238 256.736 92.3717 257.107 92.5733 257.386C92.7817 257.666 93.0774 257.881 93.4605 258.03C93.8436 258.18 94.3275 258.28 94.9123 258.332C95.5037 258.378 96.2296 258.401 97.09 258.401H102.917Z" fill="#3DA1E3"/>
<path d="M87.4214 244.67V246.23H79.6785V259.649H77.7428V246.23H70V244.67H87.4214Z" fill="#3DA1E3"/>
<rect y="233.971" width="243.346" height="2.85313" fill="url(#paint0_linear_248_4157)"/>
<defs>
<linearGradient id="paint0_linear_248_4157" x1="-3.54115e-07" y1="235.397" x2="243.346" y2="235.397" gradientUnits="userSpaceOnUse">
<stop stop-opacity="0"/>
<stop offset="0.546878"/>
<stop offset="1" stop-opacity="0"/>
</linearGradient>
</defs>
</svg>
