<svg width="18" height="18" viewBox="0 0 18 18" fill="none" xmlns="http://www.w3.org/2000/svg">
<path d="M2.46753 15.0273V15.4572C2.46753 16.0095 2.91524 16.4572 3.46753 16.4572H3.54312C4.09541 16.4572 4.54312 16.0095 4.54312 15.4572V15.0273" stroke="#4CBA08"/>
<path d="M12.7625 15.0273V15.4572C12.7625 16.0095 13.2102 16.4572 13.7625 16.4572H13.838C14.3903 16.4572 14.838 16.0095 14.838 15.4572V15.0273" stroke="#4CBA08"/>
<path d="M3.713 6.68799H2.02856C1.47628 6.68799 1.02856 7.1357 1.02856 7.68799V14.0365C1.02856 14.5888 1.47628 15.0365 2.02856 15.0365H15.5263C16.0786 15.0365 16.5263 14.5888 16.5263 14.0365V7.68799C16.5263 7.1357 16.0786 6.68799 15.5263 6.68799H13.9249" stroke="#4CBA08"/>
<path d="M3.72217 12.2414V3.05713C3.72217 2.50484 4.16988 2.05713 4.72217 2.05713H12.8234C13.3757 2.05713 13.8234 2.50484 13.8234 3.05713V12.2414" stroke="#4CBA08"/>
<path d="M3.73145 9.9353V9.9353C3.73145 8.91635 4.55747 8.09033 5.57642 8.09033H11.9785C12.9974 8.09033 13.8234 8.91635 13.8234 9.9353V9.9353" stroke="#4CBA08"/>
<path d="M3.73145 12.1492V12.1492C3.73145 11.7518 4.05359 11.4297 4.45098 11.4297H13.1039C13.5013 11.4297 13.8234 11.7518 13.8234 12.1492V12.1492" stroke="#4CBA08"/>
</svg>
