<svg width="32" height="32" viewBox="0 0 32 32" fill="none" xmlns="http://www.w3.org/2000/svg">
<path d="M20.68 3.77333H11.32C7.99999 3.77333 7.26666 5.42667 6.84 7.45333L5.33333 14.6667H26.6667L25.16 7.45333C24.7333 5.42667 24 3.77333 20.68 3.77333Z" stroke="#795C56" stroke-width="1.5" stroke-linecap="round" stroke-linejoin="round"/>
<path d="M29.32 26.4267C29.4667 27.9867 28.2133 29.3333 26.6133 29.3333H24.1067C22.6667 29.3333 22.4667 28.72 22.2133 27.96L21.9467 27.16C21.5733 26.0667 21.3333 25.3333 19.4133 25.3333H12.5867C10.6667 25.3333 10.3867 26.16 10.0533 27.16L9.78667 27.96C9.53333 28.72 9.33333 29.3333 7.89333 29.3333H5.38667C3.78667 29.3333 2.53333 27.9867 2.68 26.4267L3.42667 18.3067C3.61333 16.3067 4 14.6667 7.49333 14.6667H24.5067C28 14.6667 28.3867 16.3067 28.5733 18.3067L29.32 26.4267Z" stroke="#795C56" stroke-width="1.5" stroke-linecap="round" stroke-linejoin="round"/>
<path d="M5.33333 10.6667H4" stroke="#795C56" stroke-width="1.5" stroke-linecap="round" stroke-linejoin="round"/>
<path d="M28 10.6667H26.6667" stroke="#795C56" stroke-width="1.5" stroke-linecap="round" stroke-linejoin="round"/>
<g opacity="0.4">
<path d="M16 4V6.66667" stroke="#795C56" stroke-width="1.5" stroke-linecap="round" stroke-linejoin="round"/>
<path d="M14 6.66667H18" stroke="#795C56" stroke-width="1.5" stroke-linecap="round" stroke-linejoin="round"/>
</g>
<path opacity="0.4" d="M8 20H12" stroke="#795C56" stroke-width="1.5" stroke-linecap="round" stroke-linejoin="round"/>
<path opacity="0.4" d="M20 20H24" stroke="#795C56" stroke-width="1.5" stroke-linecap="round" stroke-linejoin="round"/>
</svg>
