<svg width="32" height="32" viewBox="0 0 32 32" fill="none" xmlns="http://www.w3.org/2000/svg">
<path d="M12.2133 14.4933C12.08 14.48 11.92 14.48 11.7733 14.4933C8.6 14.3867 6.08 11.7867 6.08 8.58666C6.08 5.32 8.72 2.66666 12 2.66666C15.2667 2.66666 17.92 5.32 17.92 8.58666C17.9067 11.7867 15.3867 14.3867 12.2133 14.4933Z" stroke="#3DA1E3" stroke-width="1.5" stroke-linecap="round" stroke-linejoin="round"/>
<path opacity="0.4" d="M21.88 5.33334C24.4667 5.33334 26.5467 7.42667 26.5467 10C26.5467 12.52 24.5467 14.5733 22.0533 14.6667C21.9467 14.6533 21.8267 14.6533 21.7067 14.6667" stroke="#3DA1E3" stroke-width="1.5" stroke-linecap="round" stroke-linejoin="round"/>
<path d="M5.54667 19.4133C2.32 21.5733 2.32 25.0933 5.54667 27.24C9.21333 29.6933 15.2267 29.6933 18.8933 27.24C22.12 25.08 22.12 21.56 18.8933 19.4133C15.24 16.9733 9.22667 16.9733 5.54667 19.4133Z" stroke="#3DA1E3" stroke-width="1.5" stroke-linecap="round" stroke-linejoin="round"/>
<path opacity="0.4" d="M24.4533 26.6667C25.4133 26.4667 26.32 26.08 27.0667 25.5067C29.1467 23.9467 29.1467 21.3733 27.0667 19.8133C26.3333 19.2533 25.44 18.88 24.4933 18.6667" stroke="#3DA1E3" stroke-width="1.5" stroke-linecap="round" stroke-linejoin="round"/>
</svg>
